<?xml version="1.0" encoding="UTF-8"?>
<svg width="128" height="128" viewBox="0 0 128 128" fill="none" xmlns="http://www.w3.org/2000/svg">
  <path d="M64 24C44.1177 24 28 40.1177 28 60C28 79.8823 44.1177 96 64 96H100C111.046 96 120 87.0457 120 76C120 64.9543 111.046 56 100 56C98.5 56 97.05 56.2 95.65 56.55C93.15 45.35 83.15 37 71 37C67.5 37 64.2 38 61.3 39.7C57.3 30.5 47.8 24 37 24C23.2 24 12 35.2 12 49C12 62.8 23.2 74 37 74H64C77.8 74 89 62.8 89 49C89 35.2 77.8 24 64 24Z" fill="#409EFF"/>
</svg> 